<?xml version="1.0" encoding="UTF-8" standalone="no"?>
<!-- Created with Inkscape (http://www.inkscape.org/) -->

<svg
   width="210mm"
   height="297mm"
   viewBox="0 0 210 297"
   version="1.1"
   id="svg1"
   inkscape:version="1.3.2 (091e20e, 2023-11-25)"
   sodipodi:docname="AboutZome.svg"
   xmlns:inkscape="http://www.inkscape.org/namespaces/inkscape"
   xmlns:sodipodi="http://sodipodi.sourceforge.net/DTD/sodipodi-0.dtd"
   xmlns="http://www.w3.org/2000/svg"
   xmlns:svg="http://www.w3.org/2000/svg">
  <sodipodi:namedview
     id="namedview1"
     pagecolor="#ffffff"
     bordercolor="#000000"
     borderopacity="0.25"
     inkscape:showpageshadow="2"
     inkscape:pageopacity="0.0"
     inkscape:pagecheckerboard="0"
     inkscape:deskcolor="#d1d1d1"
     inkscape:document-units="mm"
     inkscape:zoom="0.4204826"
     inkscape:cx="304.41212"
     inkscape:cy="573.15094"
     inkscape:window-width="1344"
     inkscape:window-height="731"
     inkscape:window-x="102"
     inkscape:window-y="55"
     inkscape:window-maximized="0"
     inkscape:current-layer="layer1" />
  <defs
     id="defs1">
    <rect
       x="67.771393"
       y="230.66913"
       width="499.401"
       height="100.69957"
       id="rect3" />
    <rect
       x="84.082759"
       y="205.16194"
       width="533.74018"
       height="102.80581"
       id="rect2" />
    <rect
       x="84.082756"
       y="205.16194"
       width="532.219"
       height="42.147016"
       id="rect2-0" />
    <rect
       x="84.082756"
       y="205.16194"
       width="176.47606"
       height="102.30712"
       id="rect2-3" />
    <rect
       x="84.082756"
       y="205.16194"
       width="176.47606"
       height="102.30712"
       id="rect2-3-5" />
    <rect
       x="84.082756"
       y="205.16194"
       width="176.47606"
       height="102.30712"
       id="rect2-3-5-1" />
    <rect
       x="84.082756"
       y="205.16194"
       width="176.47606"
       height="102.30712"
       id="rect2-3-5-1-7" />
    <rect
       x="84.082756"
       y="205.16194"
       width="176.47606"
       height="102.30712"
       id="rect2-3-5-1-7-7" />
    <rect
       x="84.082756"
       y="205.16194"
       width="176.47606"
       height="102.30712"
       id="rect2-3-5-1-7-7-5" />
    <rect
       x="84.082756"
       y="205.16194"
       width="176.47606"
       height="102.30712"
       id="rect2-3-5-1-7-7-5-7" />
    <rect
       x="84.082756"
       y="205.16194"
       width="176.47606"
       height="102.30712"
       id="rect2-3-5-1-7-7-6" />
    <rect
       x="84.082756"
       y="205.16194"
       width="176.47606"
       height="102.30712"
       id="rect2-3-5-13" />
    <rect
       x="84.082756"
       y="205.16194"
       width="176.47606"
       height="102.30712"
       id="rect2-3-5-1-8" />
    <rect
       x="84.082756"
       y="205.16194"
       width="176.47606"
       height="102.30712"
       id="rect2-3-5-1-7-0" />
    <rect
       x="84.082756"
       y="205.16194"
       width="255.51386"
       height="112.0195"
       id="rect2-3-0" />
    <rect
       x="84.082756"
       y="205.16194"
       width="533.74017"
       height="102.80581"
       id="rect2-1" />
    <rect
       x="67.771393"
       y="230.66913"
       width="487.62941"
       height="147.22233"
       id="rect3-7" />
    <rect
       x="67.771393"
       y="230.66913"
       width="499.401"
       height="100.69957"
       id="rect3-7-9" />
    <rect
       x="84.082756"
       y="205.16194"
       width="649.77438"
       height="122.52458"
       id="rect2-1-7" />
    <rect
       x="84.082756"
       y="205.16194"
       width="255.51385"
       height="112.0195"
       id="rect2-3-0-5" />
    <rect
       x="67.771393"
       y="230.66913"
       width="499.401"
       height="100.69957"
       id="rect3-7-9-5" />
  </defs>
  <g
     inkscape:label="Layer 1"
     inkscape:groupmode="layer"
     id="layer1">
    <rect
       style="fill:#ffffff;stroke:#000000;stroke-width:2.42892;stroke-dasharray:none;stroke-opacity:1"
       id="rect1"
       width="140.35307"
       height="81.894661"
       x="12.833014"
       y="9.5786629" />
    <rect
       style="fill:#ffffff;stroke:#000000;stroke-width:1.06199;stroke-dasharray:none;stroke-opacity:1"
       id="rect1-3"
       width="64.775116"
       height="33.92197"
       x="17.790054"
       y="22.071215" />
    <rect
       style="fill:#ffffff;stroke:#000000;stroke-width:1.34425;stroke-dasharray:none;stroke-opacity:1"
       id="rect1-3-8"
       width="132.13318"
       height="26.643431"
       x="17.931181"
       y="61.031208" />
    <rect
       style="fill:#ffffff;stroke:#000000;stroke-width:1.06199;stroke-dasharray:none;stroke-opacity:1"
       id="rect1-3-1"
       width="64.775116"
       height="33.92197"
       x="85.430374"
       y="22.071215" />
    <rect
       style="fill:#ffffff;stroke:#000000;stroke-width:0.804973;stroke-dasharray:none;stroke-opacity:1"
       id="rect1-3-4"
       width="52.57687"
       height="24.011221"
       x="155.43317"
       y="9.5346079" />
    <rect
       style="fill:#ffffff;stroke:#000000;stroke-width:0.804973;stroke-dasharray:none;stroke-opacity:1"
       id="rect1-3-4-9"
       width="52.57687"
       height="24.011221"
       x="155.43317"
       y="35.938305" />
    <text
       xml:space="preserve"
       transform="matrix(0.26458333,0,0,0.26458333,-8.0324852,-45.544827)"
       id="text1"
       style="font-size:37.3333px;font-family:UnovisEF-BoldExp;-inkscape-font-specification:UnovisEF-BoldExp;white-space:pre;shape-inside:url(#rect2);display:inline;fill:#000000;stroke:none;stroke-width:7.1811;stroke-opacity:1"><tspan
         x="84.082031"
         y="239.05566"
         id="tspan4">Frontend Interface</tspan></text>
    <text
       xml:space="preserve"
       transform="matrix(0.26458333,0,0,0.26458333,92.294049,47.295783)"
       id="text1-4"
       style="font-size:37.3333px;font-family:UnovisEF-BoldExp;-inkscape-font-specification:UnovisEF-BoldExp;white-space:pre;shape-inside:url(#rect2-1);display:inline;fill:#000000;stroke:none;stroke-width:7.1811;stroke-opacity:1"><tspan
         x="84.082031"
         y="239.05566"
         id="tspan6">1-1 relation</tspan></text>
    <text
       xml:space="preserve"
       transform="matrix(0.26458333,0,0,0.26458333,136.12852,-41.857084)"
       id="text1-0"
       style="font-size:26.6667px;font-family:UnovisEF-BoldExp;-inkscape-font-specification:UnovisEF-BoldExp;text-align:center;white-space:pre;shape-inside:url(#rect2-3);display:inline;fill:#000000;stroke:none;stroke-width:7.1811;stroke-opacity:1"
       x="54.386749"
       y="0"><tspan
         x="118.84022"
         y="229.37184"
         id="tspan7">System </tspan><tspan
         x="116.33356"
         y="262.70522"
         id="tspan8">widgets</tspan></text>
    <text
       xml:space="preserve"
       transform="matrix(0.26458333,0,0,0.26458333,136.12852,-14.800747)"
       id="text1-0-2"
       style="font-size:26.6667px;font-family:UnovisEF-BoldExp;-inkscape-font-specification:UnovisEF-BoldExp;text-align:center;white-space:pre;shape-inside:url(#rect2-3-5);display:inline;fill:#000000;stroke:none;stroke-width:7.1811;stroke-opacity:1"
       x="84.680092"
       y="0"><tspan
         x="141.33364"
         y="229.37184"
         id="tspan9">Tray </tspan><tspan
         x="86.573541"
         y="262.70522"
         id="tspan10">notifications</tspan></text>
    <rect
       style="fill:#ffffff;stroke:#000000;stroke-width:0.892394;stroke-dasharray:none;stroke-opacity:1"
       id="rect1-3-4-9-4"
       width="52.489449"
       height="29.558828"
       x="155.47688"
       y="62.682762" />
    <text
       xml:space="preserve"
       transform="matrix(0.26458333,0,0,0.26458333,136.12852,11.900002)"
       id="text1-0-2-5"
       style="font-size:26.6667px;font-family:UnovisEF-BoldExp;-inkscape-font-specification:UnovisEF-BoldExp;text-align:center;white-space:pre;shape-inside:url(#rect2-3-5-1);display:inline;fill:#000000;stroke:none;stroke-width:7.1811;stroke-opacity:1"
       x="84.680092"
       y="0"><tspan
         x="117.77356"
         y="229.37184"
         id="tspan11">User I/O</tspan></text>
    <text
       xml:space="preserve"
       transform="matrix(0.26458333,0,0,0.26458333,136.12852,19.038893)"
       id="text1-0-2-5-9"
       style="font-size:18.6667px;font-family:UnovisEF-BoldExp;-inkscape-font-specification:UnovisEF-BoldExp;text-align:center;white-space:pre;shape-inside:url(#rect2-3-5-1-7);display:inline;fill:#000000;stroke:none;stroke-width:7.1811;stroke-opacity:1"
       x="84.680092"
       y="0"><tspan
         x="84.782824"
         y="222.10893"
         id="tspan12">(camera, desktop, </tspan><tspan
         x="122.23753"
         y="245.44231"
         id="tspan13">file upload, </tspan><tspan
         x="122.08824"
         y="268.77568"
         id="tspan14">keyboard)</tspan></text>
    <rect
       style="fill:#ffffff;stroke:#000000;stroke-width:0.804973;stroke-dasharray:none;stroke-opacity:1"
       id="rect1-3-4-4"
       width="52.57687"
       height="24.011221"
       x="156.11049"
       y="169.45384" />
    <rect
       style="fill:#ffffff;stroke:#000000;stroke-width:0.804973;stroke-dasharray:none;stroke-opacity:1"
       id="rect1-3-4-9-2"
       width="52.57687"
       height="24.011221"
       x="156.11049"
       y="195.85754" />
    <text
       xml:space="preserve"
       transform="matrix(0.26458333,0,0,0.26458333,126.34989,115.67905)"
       id="text1-0-4"
       style="font-size:26.6667px;font-family:UnovisEF-BoldExp;-inkscape-font-specification:UnovisEF-BoldExp;text-align:center;white-space:pre;shape-inside:url(#rect2-3-0);display:inline;fill:#000000;stroke:none;stroke-width:7.1811;stroke-opacity:1"
       x="54.386749"
       y="0"><tspan
         x="135.83871"
         y="229.37184"
         id="tspan15">Filesystem
</tspan><tspan
         x="187.67886"
         y="262.70522"
         id="tspan16">/db</tspan></text>
    <text
       xml:space="preserve"
       transform="matrix(0.26458333,0,0,0.26458333,126.50223,129.57429)"
       id="text1-0-4-3"
       style="font-size:26.6667px;font-family:UnovisEF-BoldExp;-inkscape-font-specification:UnovisEF-BoldExp;text-align:center;white-space:pre;shape-inside:url(#rect2-3-0-5);display:inline;fill:#000000;stroke:none;stroke-width:7.1811;stroke-opacity:1"
       x="54.386749"
       y="0"><tspan
         x="125.90289"
         y="229.37184"
         id="tspan18"><tspan
           style="font-size:16px"
           id="tspan17">(sandboxed to apps)</tspan></tspan></text>
    <text
       xml:space="preserve"
       transform="matrix(0.26458333,0,0,0.26458333,136.80586,143.00182)"
       id="text1-0-2-9"
       style="font-size:21.3333px;font-family:UnovisEF-BoldExp;-inkscape-font-specification:UnovisEF-BoldExp;text-align:center;white-space:pre;shape-inside:url(#rect2-3-5-13);display:inline;fill:#000000;stroke:none;stroke-width:7.1811;stroke-opacity:1"
       x="84.680092"
       y="0"><tspan
         x="151.91501"
         y="224.52984"
         id="tspan19">p2p </tspan><tspan
         x="105.83505"
         y="251.19647"
         id="tspan20">messaging/</tspan><tspan
         x="133.64303"
         y="277.86309"
         id="tspan21">events</tspan></text>
    <rect
       style="fill:#ffffff;stroke:#000000;stroke-width:0.892394;stroke-dasharray:none;stroke-opacity:1"
       id="rect1-3-4-9-4-9"
       width="52.489449"
       height="29.558828"
       x="156.00604"
       y="138.3521" />
    <text
       xml:space="preserve"
       transform="matrix(0.26458333,0,0,0.26458333,136.65769,87.569343)"
       id="text1-0-2-5-2"
       style="font-size:26.6667px;font-family:UnovisEF-BoldExp;-inkscape-font-specification:UnovisEF-BoldExp;text-align:center;white-space:pre;shape-inside:url(#rect2-3-5-1-8);display:inline;fill:#000000;stroke:none;stroke-width:7.1811;stroke-opacity:1"
       x="84.680092"
       y="0"><tspan
         x="112.09354"
         y="229.37184"
         id="tspan22">Network</tspan></text>
    <text
       xml:space="preserve"
       transform="matrix(0.26458333,0,0,0.26458333,136.65769,94.708233)"
       id="text1-0-2-5-9-2"
       style="font-size:18.6667px;font-family:UnovisEF-BoldExp;-inkscape-font-specification:UnovisEF-BoldExp;text-align:center;white-space:pre;shape-inside:url(#rect2-3-5-1-7-0);display:inline;fill:#000000;stroke:none;stroke-width:7.1811;stroke-opacity:1"
       x="84.680092"
       y="0"><tspan
         x="132.53222"
         y="222.10893"
         id="tspan23">Wifi, eth, </tspan><tspan
         x="124.19756"
         y="245.44231"
         id="tspan24">bluetooth, </tspan><tspan
         x="96.49617"
         y="268.77568"
         id="tspan25">accepts plugins</tspan></text>
    <text
       xml:space="preserve"
       transform="matrix(0.26458333,0,0,0.26458333,-19.936666,-31.266265)"
       id="text1-0-2-5-9-5"
       style="font-size:18.6667px;font-family:UnovisEF-BoldExp;-inkscape-font-specification:UnovisEF-BoldExp;text-align:center;white-space:pre;shape-inside:url(#rect2-3-5-1-7-7);display:inline;fill:#000000;stroke:none;stroke-width:7.1811;stroke-opacity:1"
       x="84.680092"
       y="0"><tspan
         x="149.82694"
         y="222.10893"
         id="tspan26">App1</tspan></text>
    <text
       xml:space="preserve"
       transform="matrix(0.26458333,0,0,0.26458333,47.719474,-31.266265)"
       id="text1-0-2-5-9-5-7"
       style="font-size:18.6667px;font-family:UnovisEF-BoldExp;-inkscape-font-specification:UnovisEF-BoldExp;text-align:center;white-space:pre;shape-inside:url(#rect2-3-5-1-7-7-6);display:inline;fill:#000000;stroke:none;stroke-width:7.1811;stroke-opacity:1"
       x="84.680092"
       y="0"><tspan
         x="148.12826"
         y="222.10893"
         id="tspan27">App2</tspan></text>
    <text
       xml:space="preserve"
       transform="matrix(0.26458333,0,0,0.26458333,4.4363643,-20.55783)"
       id="text1-0-2-5-9-5-4"
       style="font-size:18.6667px;font-family:UnovisEF-BoldExp;-inkscape-font-specification:UnovisEF-BoldExp;text-align:center;white-space:pre;shape-inside:url(#rect2-3-5-1-7-7-5);display:inline;fill:#000000;stroke:none;stroke-width:7.1811;stroke-opacity:1"
       x="84.680092"
       y="0"><tspan
         x="94.13483"
         y="222.10893"
         id="tspan28">React app w/ Js </tspan><tspan
         x="121.64955"
         y="245.44231"
         id="tspan29">and WASM</tspan></text>
    <text
       xml:space="preserve"
       transform="matrix(0.26458333,0,0,0.26458333,71.746993,-20.55783)"
       id="text1-0-2-5-9-5-4-4"
       style="font-size:18.6667px;font-family:UnovisEF-BoldExp;-inkscape-font-specification:UnovisEF-BoldExp;text-align:center;white-space:pre;shape-inside:url(#rect2-3-5-1-7-7-5-7);display:inline;fill:#000000;stroke:none;stroke-width:7.1811;stroke-opacity:1"
       x="84.680092"
       y="0"><tspan
         x="93.901482"
         y="222.10893"
         id="tspan30">Raw HTML/CSS/</tspan><tspan
         x="160.4483"
         y="245.44231"
         id="tspan31">JS</tspan></text>
    <rect
       style="fill:#ffffff;stroke:#000000;stroke-width:2.41117;stroke-dasharray:none;stroke-opacity:1"
       id="rect1-0"
       width="140.37082"
       height="80.691887"
       x="13.454282"
       y="138.12352" />
    <text
       xml:space="preserve"
       transform="matrix(0.26458333,0,0,0.26458333,-7.5033191,83.59534)"
       id="text1-5"
       style="font-size:37.3333px;font-family:UnovisEF-BoldExp;-inkscape-font-specification:UnovisEF-BoldExp;white-space:pre;shape-inside:url(#rect2-0);display:inline;fill:#000000;stroke:none;stroke-width:7.1811;stroke-opacity:1"><tspan
         x="84.082031"
         y="239.05566"
         id="tspan32">Backend Daemon</tspan></text>
    <text
       xml:space="preserve"
       transform="matrix(0.26458333,0,0,0.26458333,0,2.6458334)"
       id="text2"
       style="font-style:normal;font-variant:normal;font-weight:normal;font-stretch:normal;font-size:16px;font-family:UnovisEF-BoldExp;-inkscape-font-specification:UnovisEF-BoldExp;text-align:center;white-space:pre;shape-inside:url(#rect3);display:inline;fill:#000000;stroke:none;stroke-width:10.1632;stroke-dasharray:none;stroke-opacity:1"><tspan
         x="203.25563"
         y="245.19574"
         id="tspan33">Permissions control module
</tspan><tspan
         x="79.391678"
         y="265.19574"
         id="tspan34">This module has secure access to a backend that is either </tspan><tspan
         x="73.727631"
         y="285.19574"
         id="tspan35">remote or local to apps, each app does not know the others </tspan><tspan
         x="134.99167"
         y="305.19574"
         id="tspan36">exist by default, apps can be added by users</tspan></text>
    <rect
       style="fill:#ffffff;stroke:#000000;stroke-width:1.44913;stroke-dasharray:none;stroke-opacity:1"
       id="rect1-3-8-2"
       width="132.02829"
       height="30.987921"
       x="17.057383"
       y="149.45264" />
    <text
       xml:space="preserve"
       transform="matrix(0.26458333,0,0,0.26458333,0.13209169,88.368978)"
       id="text2-1"
       style="font-style:normal;font-variant:normal;font-weight:normal;font-stretch:normal;font-size:18.6667px;font-family:UnovisEF-BoldExp;-inkscape-font-specification:UnovisEF-BoldExp;text-align:center;white-space:pre;shape-inside:url(#rect3-7);display:inline;fill:#000000;stroke:none;stroke-width:10.1632;stroke-dasharray:none;stroke-opacity:1"><tspan
         x="178.33364"
         y="247.61674"
         id="tspan37">Permissions control module
</tspan><tspan
         x="102.86422"
         y="270.95012"
         id="tspan38">frontend plugins are uploaded hers(not run, </tspan><tspan
         x="69.357491"
         y="294.28349"
         id="tspan39">backup only), their hashes are used for data folder </tspan><tspan
         x="71.541452"
         y="317.61687"
         id="tspan40">names, and are given an isolated kvp db bucket as </tspan><tspan
         x="216.32039"
         y="340.95024"
         id="tspan41">well as other perms
</tspan></text>
    <rect
       style="fill:#ffffff;stroke:#000000;stroke-width:0.958092;stroke-dasharray:none;stroke-opacity:1"
       id="rect1-3-8-2-7"
       width="132.51933"
       height="13.495133"
       x="16.811863"
       y="202.72487" />
    <text
       xml:space="preserve"
       transform="matrix(0.26458333,0,0,0.26458333,-0.92624165,143.03524)"
       id="text2-1-3"
       style="font-style:normal;font-variant:normal;font-weight:normal;font-stretch:normal;font-size:18.6667px;font-family:UnovisEF-BoldExp;-inkscape-font-specification:UnovisEF-BoldExp;text-align:center;white-space:pre;shape-inside:url(#rect3-7-9);display:inline;fill:#000000;stroke:none;stroke-width:10.1632;stroke-dasharray:none;stroke-opacity:1"><tspan
         x="159.39265"
         y="247.61674"
         id="tspan42">Peer Permissions control module</tspan></text>
    <rect
       style="fill:#ffffff;stroke:#000000;stroke-width:0.958092;stroke-dasharray:3.8323679,0.95809197;stroke-opacity:1;stroke-dashoffset:0"
       id="rect1-3-8-2-7-7"
       width="132.51933"
       height="13.495133"
       x="16.811861"
       y="184.67383" />
    <text
       xml:space="preserve"
       transform="matrix(0.26458333,0,0,0.26458333,-0.92624423,124.98428)"
       id="text2-1-3-9"
       style="font-style:normal;font-variant:normal;font-weight:normal;font-stretch:normal;font-size:18.6667px;font-family:UnovisEF-BoldExp;-inkscape-font-specification:UnovisEF-BoldExp;text-align:center;white-space:pre;shape-inside:url(#rect3-7-9-5);display:inline;fill:#000000;stroke:none;stroke-width:10.1632;stroke-dasharray:none;stroke-opacity:1"><tspan
         x="112.24993"
         y="247.61674"
         id="tspan43">Future feature: potentially I'll have backend </tspan><tspan
         x="72.937827"
         y="270.95012"
         id="tspan44">extensions for daemons, to allow serial control, etc</tspan></text>
    <path
       style="fill:#000000;stroke:none;stroke-width:2.68901;stroke-dasharray:none;stroke-opacity:1"
       id="path3"
       d="m 78.423494,93.101161 c -0.820963,-0.470072 -1.616514,-0.987604 -2.462887,-1.410221 -0.530424,-0.264853 1.009615,0.62184 1.512588,0.935712 0.68898,0.429948 1.374659,0.865169 2.06325,1.295742 2.737554,1.711772 5.503495,3.360322 8.296749,4.97959 6.939261,4.120906 14.213246,7.621146 21.515416,11.039006 3.88601,1.81433 7.77297,3.62593 11.65454,5.44952 3.39757,1.58265 6.79107,3.17161 10.16887,4.7958 3.26324,1.50776 6.66789,2.67889 10.00756,4.0036 4.66752,1.87514 9.15749,4.15072 13.68477,6.33365 3.22126,1.63174 6.49665,3.15346 9.8243,4.55486 2.17648,0.87554 4.34443,1.78662 6.60821,2.41521 0.89765,0.35875 1.83307,0.60253 2.75711,0.8808 0,0 -3.0593,-2.36266 -3.0593,-2.36266 v 0 c -0.92305,-0.27887 -1.83977,-0.57524 -2.7575,-0.87092 -2.20271,-0.61754 -4.32306,-1.47719 -6.43778,-2.34332 -3.28489,-1.39023 -6.51914,-2.89561 -9.71124,-4.48753 -4.53056,-2.16943 -9.02852,-4.41913 -13.68778,-6.30543 -3.3751,-1.35897 -6.81072,-2.57747 -10.11019,-4.11576 -3.35934,-1.60807 -6.74964,-3.14826 -10.11297,-4.74796 -3.8094,-1.79938 -7.64054,-3.55086 -11.47213,-5.30259 -3.01805,-1.4015 -6.03179,-2.80728 -9.008146,-4.29619 -7.18281,-3.593164 0.824508,0.37405 -6.428983,-3.32755 -0.110948,-0.0566 -0.23404,-0.0854 -0.35106,-0.12805 -2.61883,-1.521036 -3.202342,-1.835464 -5.722945,-3.391325 -3.271848,-2.01957 -6.41908,-4.23717 -9.813674,-6.056095 z" />
    <path
       style="fill:#000000;stroke:none;stroke-width:2.68901;stroke-dasharray:none;stroke-opacity:1"
       id="path6"
       d="m 83.234214,216.61115 c 0.235183,4.39497 0.214524,8.79932 0.20624,13.19914 -0.02717,4.03428 -0.07536,8.06835 -0.08957,12.10272 -0.01019,2.31649 -0.03874,4.63267 -0.08467,6.94868 -0.01664,0.7324 -0.04083,1.46485 -0.04274,2.19749 0.0063,0.70912 0.0087,1.41827 0.01852,2.12735 0.0213,1.42007 0.03244,2.84029 0.02903,4.26051 -0.0071,1.00805 -0.02119,2.01614 -0.04181,3.02401 2.64e-4,0.46013 -0.01352,0.92028 -0.01114,1.38038 0.0055,0.32759 -0.0082,0.6553 -0.0039,0.98283 -0.0041,0.32842 0.0065,0.65654 0.0026,0.98499 0.0044,0.21842 5.29e-4,0.43686 -0.0048,0.65521 0,0 3.542321,1.8049 3.542321,1.8049 v 0 c -0.0052,-0.22 -0.0092,-0.44008 -0.0048,-0.66013 -0.0038,-0.32753 0.0067,-0.65477 0.0026,-0.98227 0.0044,-0.32886 -0.0094,-0.6579 -0.0039,-0.98681 0.0024,-0.46389 -0.01146,-0.92783 -0.01114,-1.39175 -0.02048,-1.02207 -0.03465,-2.04436 -0.04181,-3.06661 -0.0034,-1.41036 0.0075,-2.82073 0.02902,-4.23093 0.0099,-0.70279 0.01214,-1.40565 0.01852,-2.10848 -0.0019,-0.74716 -0.02635,-1.49413 -0.04274,-2.24106 -0.04558,-2.34477 -0.07442,-4.68971 -0.08467,-7.03495 -0.01426,-4.06479 -0.06244,-8.12929 -0.08957,-12.194 -0.0081,-4.32966 -0.03351,-8.66441 0.206243,-12.98897 z" />
    <text
       xml:space="preserve"
       transform="matrix(0.26458333,0,0,0.26458333,1.2294573,210.29961)"
       id="text1-4-8"
       style="font-size:37.3333px;font-family:UnovisEF-BoldExp;-inkscape-font-specification:UnovisEF-BoldExp;white-space:pre;shape-inside:url(#rect2-1-7);display:inline;fill:#000000;stroke:none;stroke-width:7.1811;stroke-opacity:1"><tspan
         x="84.082031"
         y="239.05566"
         id="tspan45">Other backend daemons</tspan></text>
  </g>
</svg>
