<?xml version="1.0" encoding="UTF-8" standalone="no"?>
<!-- Created with Inkscape (http://www.inkscape.org/) -->

<svg
   width="189.5049mm"
   height="55.331741mm"
   viewBox="0 0 189.5049 55.331741"
   version="1.1"
   id="svg1"
   inkscape:version="1.3.2 (091e20e, 2023-11-25)"
   sodipodi:docname="zome.svg"
   xmlns:inkscape="http://www.inkscape.org/namespaces/inkscape"
   xmlns:sodipodi="http://sodipodi.sourceforge.net/DTD/sodipodi-0.dtd"
   xmlns="http://www.w3.org/2000/svg"
   xmlns:svg="http://www.w3.org/2000/svg">
  <sodipodi:namedview
     id="namedview1"
     pagecolor="#ffffff"
     bordercolor="#000000"
     borderopacity="0.25"
     inkscape:showpageshadow="2"
     inkscape:pageopacity="0.0"
     inkscape:pagecheckerboard="0"
     inkscape:deskcolor="#d1d1d1"
     inkscape:document-units="mm"
     inkscape:zoom="0.84096521"
     inkscape:cx="310.95222"
     inkscape:cy="74.319365"
     inkscape:window-width="1440"
     inkscape:window-height="764"
     inkscape:window-x="-1"
     inkscape:window-y="25"
     inkscape:window-maximized="0"
     inkscape:current-layer="layer1" />
  <defs
     id="defs1" />
  <g
     inkscape:label="Layer 1"
     inkscape:groupmode="layer"
     id="layer1"
     transform="translate(-10.382415,-51.113884)">
    <rect
       style="fill:#55ddff;stroke-width:1.9"
       id="rect1"
       width="54.504898"
       height="11.790856"
       x="10.382416"
       y="51.113884" />
    <rect
       style="fill:#55ddff;stroke-width:1.9"
       id="rect1-7"
       width="54.504898"
       height="11.790856"
       x="10.382415"
       y="94.65477" />
    <path
       id="rect1-7-4"
       style="fill:#55ddff;stroke-width:2.24845"
       d="m 68.062098,63.745727 v 29.99968 h 30.000236 v -29.99968 z m 7.929232,2.752287 19.318201,5.176428 -5.175912,19.31869 -19.318717,-5.1764 z" />
    <rect
       style="fill:#55ddff;stroke-width:1.9"
       id="rect1-7-0"
       width="54.504898"
       height="11.790856"
       x="-77.95668"
       y="65.613617"
       transform="rotate(-60)" />
    <rect
       style="fill:#55ddff;stroke-width:1.9"
       id="rect1-5"
       width="54.504898"
       height="11.790856"
       x="145.38242"
       y="51.113892" />
    <rect
       style="fill:#55ddff;stroke-width:1.9"
       id="rect1-7-8"
       width="54.504898"
       height="11.790856"
       x="145.38242"
       y="94.65477" />
    <rect
       style="fill:#55ddff;stroke-width:1.20165"
       id="rect1-7-0-3"
       width="34.037754"
       height="7.5521045"
       x="40.51889"
       y="179.23271"
       transform="rotate(-45)" />
    <rect
       style="fill:#55ddff;stroke-width:1.20165"
       id="rect1-7-0-3-3"
       width="34.037754"
       height="7.5521045"
       x="-186.55733"
       y="67.232132"
       transform="rotate(-135)" />
    <path
       id="rect1-7-0-5"
       style="fill:#55ddff;stroke-width:1.34302"
       d="m 110.13115,61.919185 -8.89403,33.194333 9.02529,2.418435 4.44676,-16.59739 4.44728,16.59739 c 0.13098,-1e-4 7.44657,1e-5 7.44657,1e-5 l 4.44727,-16.5974 4.44728,16.59739 9.02529,-2.418435 -8.89455,-33.194332 -4.57801,1.226799 -4.57802,-1.226797 -3.59255,13.406931 -3.59203,-13.406933 -4.57852,1.2268 z" />
  </g>
</svg>
